<?xml version="1.0" encoding="UTF-8" standalone="no"?>
<svg width="15px" height="28px" viewBox="0 0 15 28" version="1.1" xmlns="http://www.w3.org/2000/svg" xmlns:xlink="http://www.w3.org/1999/xlink">
    <!-- Generator: Sketch 3.8.3 (29802) - http://www.bohemiancoding.com/sketch -->
    <title>logo colored</title>
    <desc>Created with Sketch.</desc>
    <defs>
        <polygon id="path-1" points="14.37944 0.00999008333 14.37944 26.4419079 0 26.4419079 0 0.00999008333 14.37944 0.00999008333"></polygon>
    </defs>
    <g id="Symbols" stroke="none" stroke-width="1" fill="none" fill-rule="evenodd">
        <g id="site-top-on-light" transform="translate(-146.000000, -7.000000)">
            <g id="site-logo">
                <g transform="translate(136.000000, 4.000000)">
                    <g id="logo-colored" transform="translate(10.246118, 3.585562)">
                        <g id="Group-3" transform="translate(0.000000, 0.155346)">
                            <mask id="mask-2" fill="white">
                                <use xlink:href="#path-1"></use>
                            </mask>
                            <g id="Clip-2"></g>
                            <path d="M12.7702351,22.1714076 L11.4228546,24.8301414 C11.2965945,25.0534103 11.0591131,25.192065 10.8027919,25.192065 L3.57654899,25.192065 C3.32055827,25.192065 3.08274636,25.0534103 2.95681677,24.8301414 L1.60910578,22.1714076 C1.5213517,22.0157308 1.49507505,21.8337775 1.53639053,21.6589303 L4.57588785,8.72668897 L4.74610763,8.72668897 L9.80345304,8.72668897 L12.8434461,21.6589303 C12.8841006,21.8337775 12.8581545,22.0157308 12.7702351,22.1714076 M14.3202267,21.3123761 L11.2680042,8.32642459 C11.82692,7.93128333 12.1944626,7.28097766 12.1944626,6.54539683 C12.1944626,5.34295107 11.2159467,4.36443522 10.0131704,4.36443522 L4.91979791,4.36443522 C4.63753055,4.36443522 4.38137456,4.19719015 4.26817014,3.9387205 L3.75255294,2.49532285 C5.8578246,0.845843582 8.8417939,0.846174106 10.9472308,2.49482706 L10.5638232,3.63612591 L11.9943304,4.15141259 L12.5464705,2.89062937 C12.6940494,2.59398422 12.6317456,2.23189534 12.3866622,2.0011897 C9.56266642,-0.653743121 5.13810891,-0.653743121 2.31361736,2.0011897 C2.07977174,2.22148384 2.00986595,2.56423707 2.13827446,2.8584033 L2.87897841,4.54738017 C3.23396102,5.35815517 4.03531609,5.61414589 4.91979791,5.61414589 L10.0131704,5.61414589 C10.3793908,5.61414589 10.6771928,6.00961767 10.6771928,6.54539683 C10.6771928,7.08150652 10.3793908,7.47730882 10.0131704,7.47730882 L4.74610763,7.47730882 C4.38038299,7.47730882 4.082581,6.91161726 4.082581,6.54539683 L2.56547654,6.54539683 C2.56547654,7.13125035 2.79849585,7.66207166 3.17529304,8.05440346 L0.0594447142,21.3123761 C-0.069129063,21.8582362 0.0125103277,22.4278941 0.287836694,22.9159125 L1.63587821,25.3074179 C2.02986264,26.0069716 2.7735413,26.441941 3.57654899,26.441941 L10.8027919,26.441941 C11.6057996,26.441941 12.3496435,26.0069716 12.7441237,25.3074179 L14.092,22.9165736 C14.3673263,22.4278941 14.4483047,21.8582362 14.3202267,21.3123761" id="Fill-1" fill="#2BBDEE" mask="url(#mask-2)"></path>
                        </g>
                        <path d="M4.28119278,14.6640211 L2.61221261,21.7631776 L3.83498559,24.1993036 L10.5442892,24.1993036 L11.7668969,21.7631776 L9.61964873,12.6255152 C7.39522323,12.6255152 6.34812367,14.6640211 4.28119278,14.6640211" id="Fill-4" fill="#2BBDEE"></path>
                    </g>
                </g>
            </g>
        </g>
    </g>
</svg>